<svg width="20" height="20" viewBox="0 0 20 20" fill="none" xmlns="http://www.w3.org/2000/svg">
<path fill-rule="evenodd" clip-rule="evenodd" d="M10.0177 19.7294C9.74906 19.7294 9.49832 19.6577 9.26549 19.5324L6.88346 18.1175C6.52526 17.9205 6.70436 17.8488 6.81182 17.813C7.29539 17.6518 7.38494 17.616 7.88642 17.3294C7.94015 17.2936 8.01179 17.3115 8.06552 17.3474L9.89234 18.4399C9.96398 18.4757 10.0535 18.4757 10.1073 18.4399L17.2533 14.3027C17.325 14.2668 17.3608 14.1952 17.3608 14.1057V5.84915C17.3608 5.7596 17.325 5.68796 17.2533 5.65214L10.1073 1.53285C10.0356 1.49703 9.94607 1.49703 9.89234 1.53285L2.74626 5.65214C2.67462 5.68796 2.6388 5.77751 2.6388 5.84915V14.1057C2.6388 14.1773 2.67462 14.2668 2.74626 14.3027L4.69844 15.431C5.75513 15.9683 6.4178 15.3414 6.4178 14.7146V6.56555C6.4178 6.45809 6.50735 6.35063 6.63272 6.35063H7.54613C7.65359 6.35063 7.76105 6.44018 7.76105 6.56555V14.7146C7.76105 16.1295 6.99092 16.9533 5.64767 16.9533C5.23574 16.9533 4.91336 16.9533 3.99995 16.5056L2.11941 15.431C1.65375 15.1623 1.36719 14.6609 1.36719 14.1236V5.86706C1.36719 5.32976 1.65375 4.82828 2.11941 4.55963L9.26549 0.42243C9.71324 0.17169 10.3222 0.17169 10.7699 0.42243L17.916 4.55963C18.3817 4.82828 18.6682 5.32976 18.6682 5.86706V14.1236C18.6682 14.6609 18.3817 15.1623 17.916 15.431L10.7699 19.5682C10.5371 19.6757 10.2684 19.7294 10.0177 19.7294ZM12.2206 14.0519C9.08639 14.0519 8.44163 12.6191 8.44163 11.4012C8.44163 11.2938 8.53118 11.1863 8.65655 11.1863H9.58787C9.69533 11.1863 9.78488 11.258 9.78488 11.3654C9.92816 12.3147 10.3401 12.7803 12.2385 12.7803C13.743 12.7803 14.3877 12.44 14.3877 11.6341C14.3877 11.1684 14.2086 10.8281 11.8624 10.5953C9.91025 10.3983 8.69237 9.96845 8.69237 8.41028C8.69237 6.95957 9.91025 6.09989 11.952 6.09989C14.2445 6.09989 15.3728 6.88793 15.5161 8.60729C15.5161 8.66102 15.4982 8.71475 15.4623 8.76848C15.4265 8.8043 15.3728 8.84012 15.3191 8.84012H14.3877C14.2982 8.84012 14.2086 8.76848 14.1907 8.67893C13.9758 7.69388 13.4206 7.3715 11.952 7.3715C10.3043 7.3715 10.1073 7.94462 10.1073 8.37446C10.1073 8.89385 10.3401 9.05504 12.5609 9.3416C14.7639 9.62816 15.8026 10.0401 15.8026 11.5803C15.7847 13.1564 14.4952 14.0519 12.2206 14.0519Z" fill="#539E43"/>
</svg>
