<svg width="25" height="25" viewBox="0 0 25 25" fill="none" xmlns="http://www.w3.org/2000/svg">
<path d="M15.6251 3.12496C17.2204 3.30219 18.656 4.07399 19.7917 5.20829C20.9275 6.34259 21.6958 7.77984 21.8751 9.37496M15.1042 6.77079C15.8722 6.9206 16.6344 7.25925 17.1876 7.81246C17.7408 8.36567 18.0795 9.12792 18.2292 9.89579M8.54226 16.4573C1.35685 9.27102 2.3786 5.98032 3.13607 4.91992C3.23337 4.74852 5.63182 1.15817 8.20278 3.26461C14.5842 8.52022 6.77091 8.33329 11.864 13.1367C16.9572 17.9402 16.4807 10.4166 21.7354 16.7967C23.842 19.3687 20.2514 21.767 20.0811 21.8633C19.0207 22.6218 15.7287 23.6435 8.54226 16.4573Z" stroke="black" stroke-width="1.5" stroke-linecap="round" stroke-linejoin="round"/>
</svg>
