<svg width="27" height="26" viewBox="0 0 27 26" fill="none" xmlns="http://www.w3.org/2000/svg">
<path fill-rule="evenodd" clip-rule="evenodd" d="M6.4566 24.6775V8.55397H1.09803V24.6775H6.4566V24.6775ZM3.77788 6.35337C5.64594 6.35337 6.80959 5.11423 6.80959 3.56702C6.77427 1.98541 5.64594 0.78125 3.81291 0.78125C1.97959 0.781299 0.78125 1.98546 0.78125 3.56707C0.78125 5.11428 1.94427 6.35342 3.74261 6.35342L3.77788 6.35337ZM9.42236 24.6775C9.42236 24.6775 9.49267 10.0668 9.42236 8.55401H14.7818V10.8923H14.7462C15.4509 9.79198 16.7205 8.17539 19.6112 8.17539C23.1378 8.17539 25.7812 10.4798 25.7812 15.4324V24.6776H20.4227V16.0519C20.4227 13.8846 19.6474 12.4056 17.7076 12.4056C16.2275 12.4056 15.3454 13.4027 14.958 14.3665C14.8163 14.7095 14.7818 15.1914 14.7818 15.6733V24.6775H9.42236Z" fill="black" stroke="black" stroke-width="1.5625"/>
</svg>
